<?xml version="1.0" encoding="utf-8"?>
<!-- Generator: Adobe Illustrator 16.0.0, SVG Export Plug-In . SVG Version: 6.00 Build 0)  -->
<!DOCTYPE svg PUBLIC "-//W3C//DTD SVG 1.1//EN" "http://www.w3.org/Graphics/SVG/1.1/DTD/svg11.dtd">
<svg version="1.1" id="Layer_1" xmlns="http://www.w3.org/2000/svg" xmlns:xlink="http://www.w3.org/1999/xlink" x="0px" y="0px"
	 width="59px" height="28px" viewBox="0 0 59 28" enable-background="new 0 0 59 28" xml:space="preserve">
<g id="bgnd">
</g>
<g id="Layer_1_1_">
</g>
<g id="top_head">
	<g>
		<g>
			<path fill="#ED1D24" d="M25.6,0H14.1c-0.7,2.6-0.3,5.4,1.4,7.7l0,0l2.9,4.2c0.9,1.4,1.4,3,1.4,4.7c0,4.7-3.8,8.5-8.5,8.5
				c-4.7,0-8.5-3.8-8.5-8.5c0-3.3,1.9-6.2,4.6-7.6c0.1,0,0.1,0,0.2,0c3.1-1.6,5.2-4.9,5.2-8.7c0-0.1,0-0.2,0-0.3h-10
				C1.2,0,0,1.3,0,2.8v22.4C0,26.7,1.2,28,2.8,28h22.8c1.5,0,2.8-1.3,2.8-2.8V2.8C28.4,1.3,27.1,0,25.6,0"/>
			<path fill="#FFFFFF" d="M14.1,0c-0.7,2.6-0.3,5.4,1.4,7.7l0,0l2.9,4.2c0.9,1.4,1.4,3,1.4,4.7c0,4.7-3.8,8.5-8.5,8.5
				c-4.7,0-8.5-3.8-8.5-8.5c0-3.3,1.9-6.2,4.6-7.6c0.1,0,0.1,0,0.2,0c3.1-1.6,5.2-4.9,5.2-8.7c0-0.1,0-0.2,0-0.3H14.1z"/>
			<path fill="#FFFFFF" d="M33.9,0.6h3.6v18.8c0,7.1-1.3,8.6-5.2,8.6c-1,0-1.6-0.1-2.2-0.3l0.4-3.5c0.4,0.2,0.8,0.2,1.4,0.2
				c1.1,0,2-0.9,2-4.801V0.6z"/>
			<path fill="#FFFFFF" d="M42.9,0.6V19c0,4.4,0.1,5.4,0.899,5.4s1-0.9,1-5.4V0.6h3.5v17c0,7.101,0.2,10.4-4.5,10.4
				c-5,0-4.5-3.4-4.5-10.2V0.6H42.9z"/>
			<path fill="#FFFFFF" d="M50,0.6c0,0,1.5-0.1,3.8-0.1c3.8,0,4.7,2.7,4.7,6.3c0,3.2-0.3,5.3-2.9,6.4v0.1c3.101,0.5,3.4,3.3,3.4,7
				c0,4.101-0.9,7.7-5.2,7.7c-2.7,0-3.7-0.4-3.7-0.4v-27H50z M53.5,11.2H54c1,0,1.2-1,1.2-3.4c0-2.5-0.4-4-1.2-4
				c-0.4,0-0.4,0.1-0.4,0.1v7.3H53.5z M53.5,24.6c0,0,0.2,0,0.4,0c1.3,0,1.6-1.6,1.6-4.699c0-3.2-0.3-4.5-1.6-4.5h-0.5V24.6H53.5z"
				/>
		</g>
	</g>
</g>
<g id="meni" display="none">
</g>
<g id="header">
</g>
</svg>
