<?xml version="1.0" encoding="utf-8"?>
<!-- Generator: Adobe Illustrator 16.0.0, SVG Export Plug-In . SVG Version: 6.00 Build 0)  -->
<!DOCTYPE svg PUBLIC "-//W3C//DTD SVG 1.1//EN" "http://www.w3.org/Graphics/SVG/1.1/DTD/svg11.dtd">
<svg version="1.1" id="Layer_1" xmlns:sketch="http://www.bohemiancoding.com/sketch/ns"
	 xmlns="http://www.w3.org/2000/svg" xmlns:xlink="http://www.w3.org/1999/xlink" x="0px" y="0px" width="22px" height="22px"
	 viewBox="0 0 22 22" enable-background="new 0 0 22 22" xml:space="preserve">
<title></title>
<g id="miu">
	<g id="circle_info_more-information_detail_glyph">
		<g>
			<path id="path-1" fill="#5D5E61" d="M0,11C0,4.925-0.417,0,11,0c10.584,0,11,4.925,11,11s0,11-11,11C0.125,22,0,17.075,0,11L0,11
				z M11.25,7.5c0.69,0,1.25-0.56,1.25-1.25S11.94,5,11.25,5S10,5.56,10,6.25S10.56,7.5,11.25,7.5L11.25,7.5z M8.5,8.5v1H10v7H8.5v1
				H14v-1h-1.5v-8H8.5L8.5,8.5z"/>
		</g>
		<g>
			<path id="path-1_1_" fill="none" d="M0,11C0,4.925-1.828,0.724,11,0c10.334-0.583,11,4.925,11,11s-4.925,11-11,11S0,17.075,0,11
				L0,11z M11.25,7.5c0.69,0,1.25-0.56,1.25-1.25S11.94,5,11.25,5S10,5.56,10,6.25S10.56,7.5,11.25,7.5L11.25,7.5z M8.5,8.5v1H10v7
				H8.5v1H14v-1h-1.5v-8H8.5L8.5,8.5z"/>
		</g>
	</g>
</g>
</svg>
