<?xml version="1.0" encoding="utf-8"?>
<!-- Generator: Adobe Illustrator 17.0.0, SVG Export Plug-In . SVG Version: 6.00 Build 0)  -->
<!DOCTYPE svg PUBLIC "-//W3C//DTD SVG 1.1//EN" "http://www.w3.org/Graphics/SVG/1.1/DTD/svg11.dtd">
<svg version="1.1" id="Layer_1" xmlns="http://www.w3.org/2000/svg" xmlns:xlink="http://www.w3.org/1999/xlink" x="0px" y="0px"
	 width="772.814px" height="515.879px" viewBox="0 0 772.814 515.879" enable-background="new 0 0 772.814 515.879"
	 xml:space="preserve">
<g>
	<g>
		<path fill="#EB2026" d="M1.814,515.879c0-4.623,0-9.246,0-14.223c257.14,0,513.919,0,771,0c0,4.966,0,9.595,0,14.223
			C515.814,515.879,258.814,515.879,1.814,515.879z"/>
		<path fill="#EB2026" d="M367.076,180.917c0,46.828,0.078,93.657-0.038,140.484c-0.047,18.949-11.69,33.134-30.121,37.062
			c-3.722,0.793-7.6,1.202-11.407,1.205c-92.323,0.065-184.647,0.098-276.97,0.002c-14.47-0.015-27.58-4.093-38.096-14.737
			c-6.93-7.014-10.41-15.451-10.415-25.188c-0.048-92.823-0.03-185.646,0.001-278.47c0.004-12.092,5.848-21.33,14.871-28.723
			c10.128-8.298,21.694-12.61,34.98-12.552c35.995,0.157,71.992,0.053,107.988,0.073c6.984,0.004,7.283,0.297,6.523,7.433
			c-4.612,43.269-23.413,78.257-59.866,103.111c-10.45,7.125-20.714,14.576-30.621,22.436
			c-28.006,22.218-39.483,51.919-38.228,87.031c1.878,52.551,46.826,99.205,99.33,102.924c40.361,2.859,74.736-9.883,100.508-41.667
			c24.054-29.665,34.033-74.341,8.361-116.217c-10.781-17.586-22.664-34.504-34.261-51.578c-12.211-17.978-23.755-36.249-29-57.703
			c-4.246-17.367-3.699-34.643,0.803-51.907c0.797-3.056,2.152-3.906,5.148-3.902c46.328,0.067,92.657-0.122,138.984,0.085
			c24.274,0.108,41.491,17.667,41.526,41.812c0.067,46.328,0.019,92.657,0.019,138.985
			C367.089,180.917,367.082,180.917,367.076,180.917z"/>
		<path fill="#FFFFFF" d="M578.276,4.624c15.544,0,30.169,0,45.551,0c0,1.996,0,3.763,0,5.53
			c0.002,81.156,0.077,162.311-0.043,243.467c-0.032,21.642,0.215,43.34-3.986,64.736c-0.704,3.588-1.586,7.162-2.688,10.647
			c-5.915,18.704-18.84,29.287-38.228,30.798c-10.696,0.833-21.674,0.646-32.298-0.777c-18.398-2.465-30.575-13.582-34.419-31.606
			c-3.002-14.072-4.943-28.656-5.011-43.023c-0.436-91.983-0.224-183.969-0.217-275.954c0-1.134,0.112-2.268,0.189-3.731
			c15.476,0,30.71,0,46.67,0c0,2.041,0,3.964,0,5.886c0.005,84.155-0.068,168.31,0.102,252.465
			c0.025,12.136,1.136,24.274,1.937,36.399c0.173,2.615,1.025,5.223,1.832,7.748c1.205,3.769,3.518,6.517,7.841,6.52
			c4.256,0.003,7.034-2.589,8.032-6.335c1.492-5.6,2.872-11.352,3.237-17.106c0.841-13.291,1.42-26.621,1.441-39.937
			c0.124-79.655,0.06-159.311,0.06-238.967C578.276,9.256,578.276,7.127,578.276,4.624z"/>
		<path fill="#FFFFFF" d="M648.131,2.901c10.53,0,20.812-0.134,31.089,0.037c10.476,0.175,21.083-0.292,31.394,1.188
			c22.328,3.205,36.164,16.993,41.939,38.308c7.766,28.662,7.201,57.732,1.04,86.576c-3.624,16.968-14.264,29.024-29.876,36.632
			c-1.264,0.616-2.467,1.354-4.703,2.591c2.763,0.77,4.426,1.276,6.11,1.695c16.238,4.039,26.659,14.309,32.129,29.916
			c5.09,14.522,5.972,29.662,6.338,44.824c0.522,21.662,0.6,43.332-4.785,64.56c-1.061,4.183-2.383,8.331-3.956,12.349
			c-9.129,23.326-26.409,35.862-51.266,37.327c-17.318,1.021-34.617,0.254-51.655-3.724c-3.204-0.748-4.25-2.01-4.248-5.321
			c0.078-113.786,0.057-227.571,0.065-341.357C647.746,7.047,647.94,5.591,648.131,2.901z M692.835,197.837c0,2.053,0,3.875,0,5.698
			c0,34.632,0.001,69.265-0.003,103.897c-0.001,8.573,2.886,10.785,11.049,7.334c3.273-1.384,6.477-4.272,8.338-7.316
			c2.28-3.728,3.803-8.234,4.468-12.584c3.844-25.158,3.46-50.409,0.697-75.644c-0.358-3.267-1.337-6.528-2.454-9.639
			C711.243,199.319,704.419,195.632,692.835,197.837z M692.823,140.506c12.562,1.129,17.086-2.145,19.6-13.501
			c0.288-1.299,0.617-2.627,0.628-3.944c0.133-16.297,0.63-32.608,0.096-48.884c-0.214-6.515-2.347-13.077-4.367-19.374
			c-0.952-2.969-3.217-6.086-5.781-7.792c-2.152-1.433-5.692-1.441-8.424-0.967c-0.896,0.155-1.673,3.797-1.681,5.848
			c-0.108,27.664-0.071,55.329-0.07,82.993C692.823,136.674,692.823,138.462,692.823,140.506z"/>
		<path fill="#FFFFFF" d="M392.072,312.004c6.483,0.628,12.23,1.407,18.002,1.691c8.076,0.397,14.848-2.983,17.908-10.306
			c3.42-8.184,5.825-16.934,7.5-25.662c1.368-7.128,1.359-14.587,1.367-21.9c0.084-81.628,0.053-163.256,0.053-244.885
			c0-1.957,0-3.914,0-6.214c15.734,0,30.986,0,46.856,0c0,1.58,0,3.172,0,4.764c0.003,82.461,0.122,164.922-0.069,247.383
			c-0.05,21.48-0.907,42.984-6.729,63.894c-4.323,15.525-11.625,29.081-27.709,34.984c-19.16,7.032-38.855,6.691-58.513,1.911
			c-1.215-0.296-2.948-2.426-2.849-3.564C389.115,340.028,390.635,325.982,392.072,312.004z"/>
		<path fill="#FFFFFF" d="M29.249,444.798c8.469,5.162,10.762,9.299,9.541,16.43c-1.084,6.332-6.044,11.291-14.069,12.147
			c-7.321,0.781-14.791,0.165-22.732,0.165c0-7.438,0.001-14.549,0-21.661c-0.002-8.82,0.196-17.648-0.103-26.458
			c-0.129-3.784,1.365-5.137,4.778-5.182c5.154-0.068,10.339-0.508,15.454-0.093c6.367,0.516,12.332,2.586,14.463,9.482
			C38.65,436.327,35.559,441.19,29.249,444.798z M11.972,466.742c6.14,0.189,12.268,1.213,15.525-4.707
			c1.216-2.21,0.947-6.661-0.552-8.657c-3.675-4.891-9.358-4.42-14.972-3.65C11.972,455.499,11.972,460.765,11.972,466.742z
			 M11.781,442.151c3.509-0.207,6.509-0.027,9.34-0.633c4.353-0.932,6.584-4.478,5.896-8.471c-0.725-4.206-5.324-6.369-11.704-6.023
			c-5.209,0.282-3.229,4.035-3.477,6.607C11.586,436.228,11.781,438.868,11.781,442.151z"/>
		<path fill="#FFFFFF" d="M363.813,435.301c3.058,0.536,7.768-2.764,8.199,3.075c4.018-1.372,8.129-3.915,12.184-3.829
			c3.805,0.081,7.551,2.942,12.025,4.885c0.037-0.035,1.034-1.123,2.168-2.044c7.92-6.437,19.853-3.046,21.102,6.819
			c1.216,9.604,0.264,19.481,0.264,29.41c-2.724,0-5.485,0-8.859,0c0-6.19,0.02-12.137-0.011-18.085
			c-0.011-2.162,0.066-4.357-0.266-6.479c-0.585-3.75-2.38-6.982-6.616-6.809c-4.45,0.182-6.932,3.309-7.145,7.606
			c-0.296,5.985-0.1,11.995-0.113,17.994c-0.004,1.795-0.001,3.589-0.001,5.712c-3.229,0-5.982,0-9.596,0
			c0-5.224,0.019-10.479-0.007-15.734c-0.014-2.831,0.02-5.672-0.191-8.491c-0.291-3.883-2.047-7.001-6.271-7.076
			c-3.955-0.069-6.61,2.533-7.244,6.349c-0.568,3.412-0.404,6.956-0.45,10.443c-0.062,4.656-0.015,9.313-0.015,14.405
			c-2.992,0-5.718,0-9.158,0C363.813,461.096,363.813,448.538,363.813,435.301z"/>
		<path fill="#FFFFFF" d="M735.551,473.496c0-5.86,0.04-11.479-0.018-17.097c-0.026-2.491-0.167-4.989-0.405-7.469
			c-0.357-3.723-2.15-6.518-6.12-6.663c-3.797-0.138-6.432,2.272-7.136,5.814c-0.704,3.544-0.591,7.267-0.664,10.916
			c-0.096,4.774-0.023,9.551-0.023,14.601c-3.41,0-6.144,0-9.267,0c0-12.794,0-25.342,0-38.182c2.451,0,4.717,0,7.404,0
			c0.322,1.18,0.686,2.514,0.826,3.027c4.15-1.417,8.242-3.949,12.28-3.866c3.81,0.079,7.562,2.911,11.921,4.782
			c1.207-0.843,3.428-3.025,6.095-4.137c8.035-3.352,16.364,0.625,17.383,9.379c1.101,9.458,0.249,19.144,0.249,29.006
			c-2.607,0-5.369,0-8.927,0c0-5.355,0.02-10.623-0.008-15.891c-0.014-2.663,0.028-5.339-0.208-7.986
			c-0.354-3.979-1.939-7.217-6.459-7.55c-3.724-0.275-7.103,3.405-7.297,8.007c-0.204,4.822-0.041,9.66-0.039,14.49
			c0.001,2.812,0,5.624,0,8.82C741.977,473.496,739.239,473.496,735.551,473.496z"/>
		<path fill="#FFFFFF" d="M646.624,437.883c0-7.136,0-13.57,0-19.927c9.942-1.605,9.932-1.605,9.93,7.542
			c-0.004,14.651,0.011,29.301,0.001,43.952c-0.001,1.295-0.121,2.591-0.204,4.257c-3.645-0.535-8.538,2.954-8.865-2.835
			c-4.993,1.207-10.055,3.311-15.125,3.331c-3.132,0.013-6.927-2.525-9.292-4.999c-6.704-7.013-6.652-20.946-0.498-28.752
			C628.007,433.558,636.363,432.478,646.624,437.883z M646.595,455.264c-0.123-2.546,0.446-4.826-0.436-6.103
			c-1.848-2.676-4.064-5.704-6.86-6.964c-3.454-1.557-6.769,0.644-8.93,3.778c-2.928,4.246-3.347,12.786,0.049,16.532
			c1.957,2.159,5.725,4.178,8.34,3.816c2.607-0.36,5.152-3.499,7.02-5.955C646.82,458.999,646.43,456.54,646.595,455.264z"/>
		<path fill="#FFFFFF" d="M248.36,435.397c2.586,0,5.017,0,7.809,0c0.319,1.32,0.652,2.695,1.012,4.183
			c0.455-0.157,0.989-0.2,1.327-0.479c11.33-9.357,24.918-4.55,27.846,9.867c2.308,11.366-2.949,22.064-12.201,24.936
			c-5.495,1.705-10.486,0.696-15.892-3.351c0,6.683,0,12.642,0,18.857c-3.672,0-6.566,0-9.9,0
			C248.36,471.473,248.36,453.752,248.36,435.397z M276.905,454.542c-0.224-1.645-0.295-2.809-0.551-3.93
			c-1.301-5.705-5.18-9.079-9.846-8.626c-5.022,0.488-8.261,4.531-8.401,10.551c-0.046,1.985-0.115,3.984,0.054,5.957
			c0.396,4.614,3.445,7.97,7.674,8.443c4.796,0.536,7.98-1.891,9.723-6.081C276.426,458.769,276.538,456.366,276.905,454.542z"/>
		<path fill="#FFFFFF" d="M664.39,454.559c0.109-12.555,8.011-20.489,20.22-20.3c11.727,0.181,19.255,8.186,19.07,20.279
			c-0.186,12.095-8.38,20.374-20.01,20.215C672.005,474.594,664.286,466.509,664.39,454.559z M674.166,453.894
			c0.503,2.403,0.759,4.743,1.497,6.92c1.339,3.949,4.09,6.648,8.41,6.672c4.4,0.024,7.537-2.809,8.14-6.806
			c0.669-4.435,0.755-9.342-0.536-13.543c-0.744-2.42-4.472-4.739-7.29-5.503c-3.729-1.011-6.701,1.619-8.225,5.09
			C675.176,448.971,674.812,451.49,674.166,453.894z"/>
		<path fill="#FFFFFF" d="M596.121,454.085c-0.029,12.333-8.155,20.714-20.051,20.681c-11.469-0.032-19.409-8.342-19.332-20.234
			c0.079-12.154,8.04-20.296,19.847-20.297C588.38,434.233,596.149,442.127,596.121,454.085z M585.899,454.748
			c0.121-7.961-3.767-13.473-9.462-13.416c-5.753,0.057-10.046,6.356-9.535,13.99c0.489,7.309,4.59,12.4,9.865,12.249
			C581.995,467.42,585.787,462.095,585.899,454.748z"/>
		<path fill="#FFFFFF" d="M481.494,473.653c-3.345,0-6.13,0-9.34,0c0-12.763,0-25.302,0-38.183c3.571-0.03,8.013-2.596,8.897,4.076
			c1.514-1.098,2.792-2.136,4.174-3.01c8.957-5.669,20.134-1.096,21.2,9.39c0.916,9.007,0.19,18.182,0.19,27.624
			c-3.05,0-5.924,0-9.388,0c0-6.02,0.015-11.806-0.008-17.591c-0.008-1.994,0.037-4.004-0.195-5.977
			c-0.604-5.137-3.348-7.98-7.37-7.849c-4.276,0.139-7.683,3.833-7.782,8.795c-0.132,6.651-0.039,13.307-0.07,19.961
			C481.798,471.685,481.63,472.481,481.494,473.653z"/>
		<path fill="#FFFFFF" d="M49.534,443.498c-0.648-2.086-1.18-3.798-1.843-5.928c7.416-3.573,14.789-4.702,22.312-1.741
			c4.966,1.955,7.325,6.378,7.498,11.493c0.291,8.615,0.08,17.246,0.08,26.243c-3.246-0.332-7.456,2.864-8.979-2.577
			c-3.087,1.226-5.885,2.81-8.883,3.431c-6.495,1.345-12.179-1.874-14.107-7.467c-2.01-5.829,0.351-12.526,6.295-15.109
			c4.786-2.079,10.115-2.907,15.368-4.335C67.434,440.785,62.482,439.429,49.534,443.498z M67.594,454.321
			c-3.499,0.928-6.843,1.33-9.716,2.711c-3.006,1.445-4.439,4.803-2.333,7.491c1.33,1.697,4.799,2.874,7.001,2.496
			C67.376,466.191,68.619,462.708,67.594,454.321z"/>
		<path fill="#FFFFFF" d="M329.784,457.171c1.047,9.137,5.075,10.628,21.754,8.913c2.58,5.96,2.261,6.646-3.894,7.775
			c-1.955,0.359-3.948,0.636-5.931,0.693c-16.339,0.47-24.976-10.409-20.914-26.275c2.519-9.84,11.03-15.376,21.177-13.775
			c8.667,1.368,14.117,9.229,13.612,19.184c-0.151,2.977-1.471,3.562-4.061,3.522C344.406,457.1,337.283,457.171,329.784,457.171z
			 M345.871,450.105c-0.435-6.313-3.267-9.373-7.999-9.162c-4.608,0.205-7.63,3.752-7.608,9.162
			C335.352,450.105,340.442,450.105,345.871,450.105z"/>
		<path fill="#FFFFFF" d="M164.894,457.176c1.19,9.188,5.394,10.742,21.793,8.851c2.695,6.207,2.376,6.837-4.223,7.927
			c-1.803,0.298-3.633,0.507-5.458,0.596c-16.886,0.82-26.368-12.19-20.518-28.116c3.377-9.192,12.431-13.964,22.11-11.654
			c7.867,1.878,13.179,10.245,11.91,19.413c-0.159,1.149-2.457,2.796-3.819,2.85C179.558,457.329,172.408,457.176,164.894,457.176z
			 M181.145,450.084c-0.573-6.11-3.11-9.056-7.504-9.158c-4.661-0.108-7.877,3.226-8.6,9.158
			C170.293,450.084,175.513,450.084,181.145,450.084z"/>
		<path fill="#FFFFFF" d="M438.105,457.85c1.716,8.486,4.041,9.338,22.36,8.281c0.456,1.801,0.93,3.67,1.38,5.448
			c-12.739,6.985-28.327,2.44-32.278-9.139c-5.188-15.203,5.201-29.712,20.089-28.056c9.427,1.048,16.66,11.285,14.159,20.459
			c-0.29,1.064-2.6,2.177-4.013,2.233c-6.818,0.266-13.65,0.172-20.476,0.232C439.029,457.31,438.734,457.562,438.105,457.85z
			 M454.453,450.077c-0.596-6.272-3.111-9.118-7.586-9.148c-4.595-0.031-7.793,3.347-8.457,9.148
			C443.647,450.077,448.853,450.077,454.453,450.077z"/>
		<path fill="#FFFFFF" d="M142.163,435.372c3.558,0,6.494,0,10.346,0c-2.056,5.416-3.911,10.322-5.781,15.221
			c-2.61,6.837-5.418,13.607-7.773,20.53c-1.18,3.47-3.756,2.983-6.04,2.656c-1.965-0.281-4.944-1.081-5.495-2.449
			c-4.713-11.692-8.975-23.566-13.331-35.276c0.5-0.417,0.722-0.765,0.967-0.782c9.292-0.627,9.281-0.619,12.124,8.432
			c1.938,6.17,3.915,12.328,6.22,19.577C136.507,453.386,139.31,444.458,142.163,435.372z"/>
		<path fill="#FFFFFF" d="M238.628,436.364c-0.64,2.409-1.141,4.293-1.72,6.47c-2.757-0.595-5.344-1.708-7.827-1.511
			c-1.96,0.156-3.793,1.923-5.682,2.975c1.21,1.714,2.1,3.871,3.709,5.031c2.105,1.518,4.842,2.128,7.194,3.346
			c4.308,2.229,6.061,5.902,5.748,10.704c-0.317,4.87-2.774,8.532-7.314,9.622c-4.402,1.057-9.186,1.401-13.692,0.95
			c-6.964-0.698-7.319-1.97-3.988-8.609c2.846,0.74,5.735,2.176,8.526,2.007c2.383-0.144,4.654-2.133,6.974-3.306
			c-1.496-1.9-2.698-4.19-4.565-5.597c-2.069-1.56-4.914-2.05-7.126-3.467c-7.086-4.539-6.887-14.314,0.452-18.465
			C225.556,432.987,231.957,433.811,238.628,436.364z"/>
		<path fill="#FFFFFF" d="M538.895,435.413c3.523,0,6.286,0,9.311,0c0.174,0.436,0.612,1.02,0.613,1.605
			c0.011,12.134,0.287,24.279-0.153,36.397c-0.372,10.233-5.294,15.68-14.221,17.062c-1.265,0.196-2.586,0.027-4.262,0.027
			c-0.303-2.421-0.583-4.657-0.853-6.806c8.456-3.211,9.44-4.497,9.537-13.731C538.986,458.674,538.895,447.378,538.895,435.413z"/>
		<path fill="#FFFFFF" d="M88.44,435.359c2.282,0,4.565,0,7.216,0c0.406,1.48,0.862,3.142,1.108,4.039
			c3.832-2.027,7.684-4.066,12.617-6.676c0,4.573,0,7.302,0,10.068c-10.676,2.773-11.508,3.866-11.507,15.234
			c0,4.978,0,9.957,0,15.4c-3.122,0-5.992,0-9.435,0C88.44,461.017,88.44,448.489,88.44,435.359z"/>
		<path fill="#FFFFFF" d="M316.435,434.751c0,2.859,0,5.325,0,8.003c-0.811,0.245-1.552,0.588-2.324,0.684
			c-6.81,0.846-9.298,3.355-9.519,10.357c-0.204,6.456-0.043,12.923-0.043,19.735c-3.389,0-6.263,0-9.542,0
			c0-12.693,0-25.239,0-38.112c2.484,0,4.9,0,7.523,0c0.283,1.534,0.547,2.967,0.968,5.256
			C307.044,436.869,310.434,433.176,316.435,434.751z"/>
		<path fill="#FFFFFF" d="M517.539,473.475c0-12.766,0-25.16,0-37.966c3.004,0,5.865,0,9.126,0c0,12.539,0,25.045,0,37.966
			C523.83,473.475,520.959,473.475,517.539,473.475z"/>
		<path fill="#FFFFFF" d="M545.338,418.178c1.407,2.051,3.725,3.987,4,6.179c0.382,3.046-1.943,5.162-5.289,5.157
			c-3.58-0.006-5.942-2.091-5.247-5.523c0.437-2.161,2.81-3.929,4.314-5.874C543.857,418.138,544.597,418.158,545.338,418.178z"/>
		<path fill="#FFFFFF" d="M528.656,425.265c-1.982,1.428-3.798,3.645-5.983,4.102c-3.434,0.719-5.691-1.55-5.743-5.11
			c-0.049-3.352,2.168-5.569,5.306-5.119c2.238,0.32,4.225,2.399,6.323,3.694C528.592,423.642,528.624,424.453,528.656,425.265z"/>
	</g>
</g>
</svg>
